<svg xmlns="http://www.w3.org/2000/svg" viewBox="0 0 899.54 293.92"><defs><style>.cls-1{font-size:200px;font-family:Avenir-Roman, Avenir;}.cls-1,.cls-3{fill:#00a1e9;}.cls-2{fill:#2ea7e0;opacity:0.5;}</style></defs><title>BYRIO-Slogan</title><g id="图层_2" data-name="图层 2"><g id="图层_1-2" data-name="图层 1"><text class="cls-1" transform="translate(313.75 214.32)">BYRIO</text><path class="cls-2" d="M150.39,82.72c18.44,12.43,35.87,24.18,50.13,24.18h0a23.2,23.2,0,0,0,3.55-.27c-18.67-12.74-39-61.84-62.79-79.57C131.09,19.12,75,0,75,0s21.7,54.5,33.4,58.81S133.6,71.4,150.39,82.72Z"/><path class="cls-3" d="M289.91,32.15c-99.09,190.9-136,212.85-136,212.85,11.55-20.59,25.22-56,10.59-67.39C148.82,165.45,98,157.14,66.15,138.27S0,55.65,0,55.65s70-1.31,84.42,2.14c41.17,9.08,87.12,59.77,121,53.21s32.77-58.74,42.38-69.14S291.94,28.25,289.91,32.15Z"/></g></g></svg>